<svg width="146" height="192" viewBox="0 0 146 192" fill="none" xmlns="http://www.w3.org/2000/svg">
<path d="M54.742 126.018C56.5702 134.102 63.753 140.199 72.4329 140.338C82.6137 140.5 90.9988 132.404 91.1617 122.255C91.3142 112.749 84.2007 104.814 74.9342 103.712C54.3449 97.5356 48.1281 92.9473 42.0102 76.9096C40.9528 73.5755 40.1953 68.2065 41.9558 62.5315C47.4891 49.2235 53.2829 44.4096 67.5652 39.6708C72.7391 38.2793 77.7468 38.6997 81.1214 39.5559C97.9732 45.767 102.522 52.665 109.578 75.1212C111.406 83.2057 118.589 89.3025 127.269 89.4409C137.45 89.6033 145.835 81.5072 145.998 71.3579C146.15 61.8525 139.037 53.9173 129.77 52.8151C105.115 45.4192 101.069 40.3003 93.1233 15.0717C91.5815 6.6173 84.2257 0.145082 75.2795 0.00239951C72.2473 -0.0459525 69.3744 0.638253 66.8305 1.8911C61.7011 4.29011 57.831 8.98432 56.6144 14.7078C48.4396 39.0791 43.2499 43.8216 17.1981 51.1306C8.53837 52.5196 1.85995 59.9352 1.71478 68.9822C1.60877 75.5887 5.01273 81.4368 10.21 84.7593C12.2538 86.0778 14.5807 87.006 17.0894 87.4327C41.7323 94.8406 46.5464 99.9329 54.742 126.018Z" fill="#00E540"/>
<path d="M91.258 65.982C89.4298 57.8975 82.247 51.8007 73.5671 51.6623C63.3863 51.4999 55.0012 59.596 54.8383 69.7453C54.6858 79.2507 61.7993 87.1859 71.0658 88.2881C91.6551 94.4644 97.8719 99.0527 103.99 115.09C105.047 118.424 105.805 123.794 104.044 129.469C98.5109 142.777 92.7171 147.59 78.4348 152.329C73.2609 153.721 68.2532 153.3 64.8786 152.444C48.0268 146.233 43.4775 139.335 36.422 116.879C34.5939 108.794 27.4111 102.697 18.7312 102.559C8.55042 102.397 0.165271 110.493 0.00240739 120.642C-0.150122 130.147 6.96337 138.083 16.2298 139.185C40.8851 146.581 44.9309 151.7 52.8767 176.928C54.4185 185.383 61.7743 191.855 70.7206 191.998C73.7527 192.046 76.6256 191.362 79.1695 190.109C84.2989 187.71 88.169 183.016 89.3856 177.292C97.5604 152.921 102.75 148.178 128.802 140.869C137.462 139.48 144.14 132.065 144.285 123.018C144.391 116.411 140.987 110.563 135.79 107.241C133.746 105.922 131.419 104.994 128.911 104.567C104.268 97.1594 99.4536 92.0671 91.258 65.982Z" fill="#00E540"/>
</svg>
