<svg width="145" height="192" viewBox="0 0 145 192" fill="none" xmlns="http://www.w3.org/2000/svg">
<path d="M54.3671 126.018C56.1827 134.102 63.3163 140.199 71.9368 140.338C82.0478 140.5 90.3755 132.404 90.5373 122.255C90.6888 112.749 83.624 104.814 74.421 103.712C53.9727 97.5356 47.7984 92.9473 41.7225 76.9096C40.6723 73.5755 39.92 68.2065 41.6685 62.5315C47.1638 49.2235 52.918 44.4096 67.1024 39.6708C72.2409 38.2793 77.2143 38.6997 80.5658 39.5559C97.3021 45.767 101.82 52.665 108.827 75.1212C110.643 83.2057 117.777 89.3025 126.397 89.4409C136.508 89.6033 144.836 81.5072 144.998 71.3579C145.149 61.8525 138.084 53.9173 128.881 52.8151C104.395 45.4192 100.377 40.3003 92.4855 15.0717C90.9542 6.6173 83.6488 0.145082 74.7638 0.00239951C71.7524 -0.0459525 68.8992 0.638253 66.3728 1.8911C61.2785 4.29011 57.4349 8.98432 56.2267 14.7078C48.1078 39.0791 42.9537 43.8216 17.0803 51.1306C8.47989 52.5196 1.84721 59.9352 1.70303 68.9822C1.59775 75.5887 4.9784 81.4368 10.1401 84.7593C12.1698 86.0778 14.4809 87.006 16.9724 87.4327C41.4465 94.8406 46.2276 99.9329 54.3671 126.018Z" fill="#D9D9D9"/>
<path d="M90.6329 65.982C88.8173 57.8975 81.6837 51.8007 73.0632 51.6623C62.9522 51.4999 54.6245 59.596 54.4627 69.7453C54.3112 79.2507 61.376 87.1859 70.579 88.2881C91.0273 94.4644 97.2016 99.0527 103.278 115.09C104.328 118.424 105.08 123.794 103.332 129.469C97.8362 142.777 92.082 147.59 77.8976 152.329C72.7591 153.721 67.7857 153.3 64.4342 152.444C47.6979 146.233 43.1797 139.335 36.1726 116.879C34.357 108.794 27.2234 102.697 18.6029 102.559C8.49185 102.397 0.164139 110.493 0.0023909 120.642C-0.149094 130.147 6.91567 138.083 16.1187 139.185C40.6051 146.581 44.6232 151.7 52.5145 176.928C54.0458 185.383 61.3512 191.855 70.2362 191.998C73.2476 192.046 76.1008 191.362 78.6272 190.109C83.7215 187.71 87.5651 183.016 88.7733 177.292C96.8922 152.921 102.046 148.178 127.92 140.869C136.52 139.48 143.153 132.065 143.297 123.018C143.402 116.411 140.022 110.563 134.86 107.241C132.83 105.922 130.519 104.994 128.028 104.567C103.553 97.1594 98.7724 92.0671 90.6329 65.982Z" fill="#D9D9D9"/>
</svg>
