<svg width="204" height="219" viewBox="0 0 204 219" fill="none" xmlns="http://www.w3.org/2000/svg">
<g filter="url(#filter0_b_177_318)">
<path d="M68.7179 61.7622C78.1207 55.2922 90.4773 56.3655 98.6191 63.6574C127.349 85.4335 136.401 87.2337 168.461 76.4018C171.475 74.9473 174.677 74.1701 177.874 74.0282C185.982 73.6349 194.101 77.3223 199.041 84.5011C205.806 94.3319 204.325 107.391 196.112 115.487C173.799 143.205 171.868 152.258 181.753 184.675C184.828 191.752 184.273 199.747 180.614 206.236C178.848 209.521 176.294 212.447 173.009 214.707C163.318 221.376 150.489 220.031 142.371 212.123C114.564 191.077 106.315 188.662 74.25 199.517C63.4819 205.398 49.7933 202.297 42.6861 191.968C35.0975 180.94 37.8861 165.848 48.9146 158.259C58.3174 151.789 70.674 152.862 78.8158 160.154C103.549 178.901 113.698 182.843 136.498 176.666C140.768 175.013 146.453 171.646 150.93 166.206C162.603 150.224 165.127 140.634 160.874 122.117C158.419 114.677 153.501 109.486 149.818 106.71C130.998 94.1447 120.83 93.9556 94.0533 103.02C83.2852 108.902 69.5966 105.8 62.4894 95.4716C54.9008 84.443 57.6894 69.3508 68.7179 61.7622Z" fill="white" fill-opacity="0.05"/>
<path d="M135.33 157.899C125.927 164.369 113.57 163.296 105.428 156.004C76.6981 134.228 67.6469 132.427 35.5862 143.259C32.5729 144.714 29.3706 145.491 26.1731 145.633C18.065 146.026 9.94605 142.339 5.00636 135.16C-1.75809 125.329 -0.277035 112.269 7.93575 104.174C30.2486 76.4559 32.1797 67.4034 22.2944 34.9856C19.2197 27.9087 19.7743 19.9142 23.4333 13.4254C25.1997 10.1396 27.7534 7.21387 31.0381 4.9537C40.7293 -1.71474 53.5585 -0.370061 61.6765 7.5375C89.484 28.5839 97.7328 30.9986 129.797 20.1444C140.566 14.2626 154.254 17.3639 161.361 27.6927C168.95 38.7212 166.161 53.8134 155.133 61.402C145.73 67.872 133.373 66.7988 125.232 59.5068C100.498 40.7602 90.3494 36.818 67.5492 42.9949C63.2798 44.6482 57.5946 48.015 53.1173 53.4553C41.4445 69.4372 38.921 79.0271 43.1735 97.5443C45.6286 104.984 50.5466 110.175 54.2294 112.951C73.049 125.516 83.2173 125.705 109.994 116.641C120.762 110.759 134.451 113.861 141.558 124.189C149.147 135.218 146.358 150.31 135.33 157.899Z" fill="white" fill-opacity="0.05"/>
</g>
<defs>
<filter id="filter0_b_177_318" x="-63.2666" y="-63.3193" width="330.581" height="346.3" filterUnits="userSpaceOnUse" color-interpolation-filters="sRGB">
<feFlood flood-opacity="0" result="BackgroundImageFix"/>
<feGaussianBlur in="BackgroundImageFix" stdDeviation="32"/>
<feComposite in2="SourceAlpha" operator="in" result="effect1_backgroundBlur_177_318"/>
<feBlend mode="normal" in="SourceGraphic" in2="effect1_backgroundBlur_177_318" result="shape"/>
</filter>
</defs>
</svg>
