<svg width="296" height="329" viewBox="0 0 296 329" fill="none" xmlns="http://www.w3.org/2000/svg">
<path d="M101.327 200.883C114.831 204.627 127.316 214.004 146.296 231.239C157.224 242.909 175.115 246.058 189.701 237.84C206.821 228.193 212.907 206.531 203.287 189.454C194.291 173.486 174.752 167.189 158.256 174.325C138.712 179.055 125.498 180.987 114.083 179.298C102.704 177.614 92.9968 172.31 80.5207 162.279C75.7702 157.982 69.6206 150.195 67.1514 139.622C65.3479 126.326 65.6607 116.489 68.6717 107.38C71.688 98.2563 77.4448 89.7614 86.7228 79.208C93.6191 72.2307 101.93 68.2548 108.063 66.4788C124.528 63.5568 136.074 63.8271 147.528 68.4159C159.044 73.0294 170.567 82.0435 186.901 96.8761C197.829 108.546 215.72 111.696 230.306 103.477C247.426 93.83 253.512 72.168 243.892 55.0911C234.896 39.1232 215.357 32.8264 198.86 39.9621C175.45 45.6277 161.116 47.2787 148.096 43.5018C135.049 39.7168 123.177 30.4428 104.803 13.782C93.9878 1.23033 75.4519 -2.36875 60.4256 6.0984C55.3311 8.96914 51.2117 12.9056 48.1936 17.4694C42.0006 26.4463 40.1221 38.0119 43.648 48.7219C48.5589 72.295 49.9769 87.0085 45.905 100.345C41.8293 113.694 32.2103 125.808 14.5952 144.045C1.5555 154.802 -2.33157 173.642 6.23474 188.847C12.4973 199.964 23.8709 206.392 35.7654 206.866C40.4351 207.071 45.1957 206.357 49.7729 204.64C73.1967 198.984 87.8426 197.145 101.327 200.883ZM149.981 97.9951C139.053 86.3255 121.162 83.1757 106.576 91.3943C89.4564 101.041 83.3699 122.703 92.9905 139.78C101.986 155.748 121.525 162.045 138.022 154.909C157.565 150.18 170.779 148.247 182.194 149.936C193.573 151.621 203.28 156.924 215.756 166.955C220.507 171.253 226.656 179.039 229.126 189.612C230.929 202.908 230.616 212.745 227.605 221.854C224.589 230.978 218.832 239.473 209.554 250.026C202.658 257.003 194.347 260.979 188.214 262.755C171.749 265.677 160.203 265.407 148.749 260.818C137.233 256.205 125.711 247.191 109.376 232.358C98.4479 220.688 80.5567 217.539 65.9715 225.757C48.8515 235.404 42.765 257.066 52.3855 274.143C61.3813 290.111 80.9198 296.408 97.4168 289.272C120.827 283.606 135.161 281.955 148.181 285.732C161.228 289.517 173.1 298.791 191.474 315.452C202.289 328.004 220.825 331.603 235.851 323.136C240.946 320.265 245.065 316.329 248.083 311.765C254.276 302.788 256.155 291.222 252.629 280.512C247.718 256.939 246.3 242.226 250.372 228.889C254.448 215.54 264.067 203.426 281.682 185.189C294.722 174.432 298.609 155.593 290.042 140.387C283.78 129.271 272.406 122.842 260.512 122.368C255.842 122.164 251.081 122.877 246.504 124.594C223.08 130.25 208.435 132.089 194.95 128.351C181.446 124.607 168.961 115.23 149.981 97.9951Z" stroke="#03FF4A" stroke-opacity="0.16" stroke-width="2"/>
</svg>
