<svg width="13" height="14" viewBox="0 0 13 14" fill="none" xmlns="http://www.w3.org/2000/svg">
<path d="M12.0348 0.346058C11.8743 0.359061 11.7168 0.400994 11.5683 0.470218H11.5663C11.4238 0.533134 10.7463 0.850495 9.71632 1.33155L6.02531 3.06256C3.37681 4.30417 0.773315 5.52684 0.773315 5.52684L0.804315 5.51348C0.804315 5.51348 0.624815 5.57918 0.437315 5.72227C0.321479 5.80435 0.221802 5.91175 0.144315 6.03796C0.0523152 6.18829 -0.0216848 6.41824 0.00581522 6.65598C0.0508152 7.05797 0.284815 7.29906 0.452815 7.43212C0.622815 7.56686 0.784815 7.62978 0.784815 7.62978H0.788815L3.23032 8.54567C3.33982 8.93709 3.97431 11.2599 4.12681 11.795C4.21681 12.1146 4.30432 12.3145 4.41382 12.467C4.46681 12.545 4.52881 12.6101 4.60331 12.6625C4.64205 12.6875 4.68334 12.7074 4.72632 12.7215L4.70131 12.7148C4.70882 12.717 4.71482 12.7237 4.72031 12.7259C4.74031 12.7321 4.75382 12.7343 4.77931 12.7387C5.16581 12.869 5.47632 12.6018 5.47632 12.6018L5.49381 12.5862L6.93532 11.1247L9.35131 13.1886L9.40631 13.2148C9.90981 13.4609 10.4198 13.3239 10.6893 13.0823C10.9608 12.839 11.0663 12.5277 11.0663 12.5277L11.0838 12.4776L12.9508 1.82708C13.0038 1.56428 13.0173 1.31819 12.9588 1.07933C12.8985 0.837592 12.7592 0.629682 12.5683 0.496387C12.408 0.38788 12.2222 0.335506 12.0348 0.346058ZM11.9843 1.48744C11.9823 1.52252 11.9883 1.51862 11.9743 1.58599V1.59212L10.1248 12.1319C10.1168 12.1469 10.1033 12.1797 10.0663 12.2126C10.0273 12.2471 9.99632 12.2688 9.83381 12.197L6.87882 9.67426L5.09381 11.486L5.46881 8.81905L10.2968 3.80808C10.4958 3.60207 10.4293 3.55865 10.4293 3.55865C10.4433 3.30587 10.1288 3.48459 10.1288 3.48459L4.04081 7.68434L4.03882 7.67321L1.12082 6.57915V6.57692L1.11332 6.57525C1.11843 6.57336 1.12344 6.57113 1.12832 6.56857L1.14432 6.55966L1.15982 6.55353C1.15982 6.55353 3.76532 5.33086 6.41382 4.08925C7.73981 3.46733 9.07582 2.84096 10.1033 2.35768C10.7127 2.07206 11.3227 1.7881 11.9333 1.50582C11.9743 1.488 11.9548 1.48744 11.9843 1.48744Z" fill="#13F806"/>
</svg>
