<svg width="485" height="540" viewBox="0 0 485 540" fill="none" xmlns="http://www.w3.org/2000/svg">
<path d="M427.611 200.637C447.026 201.411 465.586 211.904 475.806 230.045C489.792 254.871 483.438 285.637 462.132 303.191C433.047 333.301 417.057 353.399 410.277 375.603C403.502 397.795 405.884 422.234 413.995 461.162C419.765 478.652 416.702 497.546 406.583 512.21C401.657 519.66 394.933 526.087 386.615 530.774C362.077 544.601 331.806 538.714 314.158 518.205C283.83 490.701 264.126 475.281 242.42 468.984C220.743 462.696 196.924 465.47 158.249 474.832C131.312 486.514 99.3925 476.238 84.7022 450.162C69.0014 422.293 78.9334 386.937 106.878 371.191C130.691 357.772 159.904 362.921 177.738 381.982C204.705 406.471 223.804 421.429 242.936 429.094C262.005 436.733 281.206 437.161 308.459 432.321C318.675 429.369 332.519 422.752 344.008 411.122C359.349 393.674 368.922 379.572 373.942 364.386C378.957 349.215 379.462 332.861 376.474 310.851C372.364 293.215 362.109 280.239 354.191 273.08C333.553 256.484 317.422 247.648 298.471 244.843C279.486 242.033 257.555 245.258 225.265 253.075C198.328 264.757 166.408 254.481 151.718 228.405C136.017 200.535 145.949 165.179 173.893 149.433C197.707 136.014 226.92 141.163 244.754 160.224C276.085 188.676 296.797 204.261 319.256 210.488C341.695 216.708 366.023 213.626 404.707 204.284M427.611 200.637C427.612 200.637 427.612 200.637 427.612 200.637L427.568 201.636L427.608 200.637C427.609 200.637 427.61 200.637 427.611 200.637ZM427.611 200.637C419.976 200.302 412.191 201.471 404.707 204.284M404.707 204.284C404.727 204.279 404.747 204.274 404.767 204.269L405.002 205.241M404.707 204.284C404.688 204.291 404.669 204.298 404.649 204.305L405.002 205.241M405.002 205.241C327.556 223.95 306.729 217.861 244.052 160.937L405.002 205.241ZM165.083 328.944C187.543 335.171 208.254 350.756 239.585 379.208C257.419 398.269 286.632 403.418 310.446 389.999C338.39 374.253 348.322 338.897 332.621 311.027C317.931 284.951 286.011 274.675 259.074 286.357C226.785 294.174 204.854 297.399 185.868 294.589C166.918 291.784 150.786 282.948 130.149 266.353C122.23 259.194 111.976 246.217 107.865 228.582C104.877 206.571 105.382 190.217 110.397 175.046C115.418 159.86 124.99 145.758 140.331 128.31C151.82 116.68 165.665 110.063 175.88 107.111C203.134 102.271 222.334 102.699 241.404 110.338C260.535 118.003 279.634 132.961 306.601 157.451C324.435 176.511 353.648 181.66 377.462 168.242C405.406 152.495 415.338 117.14 399.637 89.2697C384.947 63.1937 353.027 52.9181 326.09 64.6001C287.416 73.9624 263.597 76.7363 241.919 70.4478C220.213 64.1511 200.51 48.7306 170.181 21.2272C152.533 0.718304 122.262 -5.169 97.7245 8.65784C89.4062 13.3451 82.6821 19.7718 77.7561 27.2222C67.6376 41.8858 64.5739 60.7805 70.344 78.2697C78.4556 117.198 80.8375 141.637 74.0619 163.829C67.2825 186.033 51.2924 206.131 22.2072 236.241C0.901112 253.795 -5.45301 284.561 8.53328 309.387C18.7532 327.528 37.3133 338.021 56.728 338.795C64.3637 339.13 72.1485 337.961 79.6322 335.148C118.317 325.806 142.645 322.724 165.083 328.944Z" stroke="#03FF4A" stroke-opacity="0.16" stroke-width="2"/>
</svg>
