<svg width="293" height="309" viewBox="0 0 293 309" fill="none" xmlns="http://www.w3.org/2000/svg">
<g clip-path="url(#clip0_164_348)">
<circle cx="205.402" cy="57.6677" r="24.3729" transform="rotate(-8.54533 205.402 57.6677)" fill="#1CF509"/>
<circle cx="248.331" cy="133.641" r="24.3729" transform="rotate(-8.54533 248.331 133.641)" fill="#1CF509"/>
<circle cx="76.8987" cy="41.4206" r="24.3729" transform="rotate(-8.54533 76.8987 41.4206)" fill="#1CF509"/>
<circle cx="222.443" cy="257.128" r="24.3729" transform="rotate(-8.54533 222.443 257.128)" fill="#1CF509"/>
<circle cx="106.703" cy="239.771" r="24.3729" transform="rotate(-8.54533 106.703 239.771)" fill="#1CF509"/>
<circle cx="39.4339" cy="173.919" r="24.3729" transform="rotate(-8.54533 39.4339 173.919)" fill="#1CF509"/>
<circle cx="155.489" cy="187.996" r="24.3729" transform="rotate(-8.54533 155.489 187.996)" fill="#1CF509"/>
<circle cx="144.684" cy="116.084" r="24.3729" transform="rotate(-8.54533 144.684 116.084)" fill="#1CF509"/>
<path d="M38.8867 167.421C36.5649 158.716 56.1921 81.1251 66.296 43.418C68.3613 43.1076 72.9703 43.4211 74.8834 47.1577C76.7966 50.8944 62.4057 130.912 54.9712 170.454C50.5771 173.07 41.2085 176.126 38.8867 167.421Z" fill="#00F80A"/>
<path d="M214.786 267.859C212.464 259.154 232.092 181.563 242.195 143.856C244.261 143.546 248.87 143.859 250.783 147.596C252.696 151.332 238.305 231.35 230.871 270.892C226.477 273.508 217.108 276.564 214.786 267.859Z" fill="#00F80A"/>
<path d="M60.7159 158.82C69.4095 156.454 147.097 175.694 184.855 185.609C185.175 187.672 184.885 192.283 181.158 194.215C177.431 196.147 97.3422 182.156 57.7639 174.919C55.1255 170.538 52.0222 161.185 60.7159 158.82Z" fill="#00F80A"/>
<g filter="url(#filter0_b_164_348)">
<path d="M192.406 213.424C194.588 212.569 196.707 211.452 198.721 210.067C212.901 200.31 216.486 180.905 206.729 166.726C197.591 153.446 179.992 149.458 166.147 157.021C131.719 168.675 118.646 168.432 94.449 152.276C89.7139 148.707 83.3908 142.033 80.2342 132.468C74.7667 108.66 78.0113 96.3297 93.0192 75.7814C93.9577 74.6411 94.9374 73.5717 95.9438 72.5711C91.0266 74.9829 85.3263 78.9055 80.6507 84.5867C65.6427 105.135 62.3981 117.465 67.8657 141.273C71.0222 150.838 77.3454 157.512 82.0805 161.081C106.277 177.237 119.351 177.48 153.778 165.826C167.623 158.264 185.223 162.251 194.361 175.531C202.534 187.41 201.344 202.956 192.406 213.424Z" fill="white" fill-opacity="0.15"/>
<path d="M58.5778 18.8698C60.309 16.8422 62.3308 15.0051 64.6315 13.422C77.0917 4.84828 93.5864 6.57715 104.024 16.7441C139.777 43.8039 150.382 46.9084 191.608 32.953C205.453 25.3907 223.053 29.3781 232.191 42.6579C241.948 56.8375 238.362 76.2419 224.183 85.9987C222.169 87.3844 220.05 88.501 217.868 89.3563C226.806 78.8878 227.996 63.3421 219.822 51.4633C210.684 38.1834 193.085 34.196 179.24 41.7583C138.014 55.7137 127.408 52.6092 91.6554 25.5494C82.9047 17.0256 69.8966 14.4328 58.5778 18.8698Z" fill="white" fill-opacity="0.15"/>
<path d="M151.522 88.8985C141.054 79.5231 125.166 78.1432 113.077 86.4618C110.776 88.0449 108.755 89.882 107.023 91.9096C117.94 87.6301 130.429 89.8901 139.153 97.7038C176.092 125.702 187.73 128.016 228.951 114.09C232.825 112.219 236.942 111.22 241.053 111.038C251.478 110.532 261.917 115.273 268.268 124.503C276.965 137.143 275.061 153.934 264.501 164.342C235.813 199.98 233.33 211.619 246.04 253.299C249.993 262.398 249.28 272.677 244.576 281.019C243.542 282.942 242.298 284.77 240.852 286.464C243.034 285.608 245.153 284.492 247.167 283.106C251.39 280.2 254.673 276.439 256.944 272.214C261.649 263.871 262.362 253.593 258.409 244.494C245.699 202.813 248.182 191.175 276.87 155.537C287.429 145.128 289.333 128.337 280.636 115.698C274.285 106.468 263.846 101.727 253.422 102.232C249.311 102.415 245.193 103.414 241.319 105.284C200.098 119.211 188.461 116.896 151.522 88.8985Z" fill="white" fill-opacity="0.15"/>
<path d="M81.562 215.977C92.4789 211.698 104.967 213.958 113.692 221.772C145.492 245.874 158.54 250.943 187.855 243.001C192.45 241.222 198.319 237.9 203.486 232.762C202.349 233.32 201.254 233.797 200.224 234.196C170.909 242.138 157.86 237.069 126.06 212.966C115.592 203.591 99.705 202.211 87.6157 210.53C85.3149 212.113 83.2931 213.95 81.562 215.977Z" fill="white" fill-opacity="0.15"/>
</g>
<g filter="url(#filter1_b_164_348)">
<path d="M100.709 95.2667C112.799 86.9482 128.686 88.3281 139.154 97.7034C176.093 125.701 187.73 128.016 228.951 114.089C232.826 112.219 236.943 111.22 241.054 111.037C251.479 110.532 261.917 115.273 268.268 124.503C276.966 137.142 275.061 153.933 264.502 164.342C235.814 199.979 233.331 211.618 246.041 253.299C249.994 262.398 249.281 272.676 244.577 281.019C242.306 285.244 239.022 289.005 234.799 291.911C222.339 300.485 205.844 298.756 195.407 288.589C159.654 261.529 149.048 258.425 107.822 272.38C93.9773 279.943 76.3776 275.955 67.2398 262.675C57.4829 248.496 61.0683 229.091 75.2479 219.335C87.3372 211.016 103.224 212.396 113.692 221.771C145.493 245.874 158.541 250.943 187.856 243.001C193.345 240.875 200.655 236.546 206.411 229.552C221.419 209.004 224.664 196.674 219.196 172.866C216.04 163.3 209.717 156.626 204.981 153.058C180.785 136.902 167.711 136.658 133.284 148.312C119.439 155.875 101.839 151.887 92.7013 138.608C82.9444 124.428 86.5297 105.024 100.709 95.2667Z" fill="white" fill-opacity="0.05"/>
<path d="M186.353 218.871C174.264 227.19 158.377 225.81 147.909 216.435C110.97 188.437 99.3324 186.122 58.1113 200.049C54.237 201.919 50.1198 202.918 46.0086 203.101C35.584 203.607 25.1452 198.865 18.7942 189.636C10.097 176.996 12.0012 160.205 22.5606 149.796C51.2487 114.159 53.7315 102.52 41.0218 60.8396C37.0685 51.7406 37.7816 41.462 42.4861 33.1192C44.7571 28.8946 48.0405 25.1329 52.2637 22.227C64.7239 13.6532 81.2186 15.3821 91.6561 25.549C127.409 52.6088 138.014 55.7134 179.241 41.758C193.085 34.1956 210.685 38.183 219.823 51.4629C229.58 65.6425 225.994 85.0468 211.815 94.8037C199.725 103.122 183.838 101.742 173.37 92.367C141.57 68.2641 128.521 63.1956 99.2067 71.1373C93.7175 73.263 86.4079 77.5918 80.6514 84.5864C65.6435 105.135 62.3989 117.465 67.8664 141.273C71.023 150.838 77.3461 157.512 82.0812 161.081C106.278 177.237 119.352 177.48 153.779 165.826C167.624 158.263 185.224 162.251 194.361 175.531C204.118 189.71 200.533 209.115 186.353 218.871Z" fill="white" fill-opacity="0.05"/>
</g>
</g>
<defs>
<filter id="filter0_b_164_348" x="20.2781" y="-30.3718" width="304.152" height="355.136" filterUnits="userSpaceOnUse" color-interpolation-filters="sRGB">
<feFlood flood-opacity="0" result="BackgroundImageFix"/>
<feGaussianBlur in="BackgroundImageFix" stdDeviation="19.15"/>
<feComposite in2="SourceAlpha" operator="in" result="effect1_backgroundBlur_164_348"/>
<feBlend mode="normal" in="SourceGraphic" in2="effect1_backgroundBlur_164_348" result="shape"/>
</filter>
<filter id="filter1_b_164_348" x="-50.6992" y="-47.2666" width="388.462" height="408.671" filterUnits="userSpaceOnUse" color-interpolation-filters="sRGB">
<feFlood flood-opacity="0" result="BackgroundImageFix"/>
<feGaussianBlur in="BackgroundImageFix" stdDeviation="32"/>
<feComposite in2="SourceAlpha" operator="in" result="effect1_backgroundBlur_164_348"/>
<feBlend mode="normal" in="SourceGraphic" in2="effect1_backgroundBlur_164_348" result="shape"/>
</filter>
<clipPath id="clip0_164_348">
<rect width="293" height="309" fill="white"/>
</clipPath>
</defs>
</svg>
