<svg width="192" height="47" viewBox="0 0 192 47" fill="none" xmlns="http://www.w3.org/2000/svg">
<path d="M13.1293 30.644C13.5678 32.6099 15.2905 34.0924 17.3723 34.1261C19.8141 34.1656 21.8252 32.1969 21.8642 29.7288C21.9008 27.4174 20.1947 25.4878 17.9722 25.2198C13.0341 23.7179 11.543 22.6021 10.0757 18.7022C9.82212 17.8915 9.64045 16.5859 10.0627 15.2059C11.3898 11.9697 12.7794 10.7991 16.2049 9.6468C17.4458 9.30843 18.6468 9.41066 19.4562 9.61887C23.4979 11.1292 24.589 12.8066 26.2812 18.2673C26.7197 20.2332 28.4424 21.7158 30.5242 21.7495C32.9659 21.7889 34.977 19.8202 35.0161 17.3522C35.0527 15.0408 33.3466 13.1111 31.1241 12.8431C25.2108 11.0446 24.2404 9.79986 22.3347 3.665C21.9649 1.60914 20.2007 0.0352799 18.055 0.000583491C17.3278 -0.0111743 16.6388 0.155205 16.0286 0.459862C14.7984 1.04323 13.8702 2.18473 13.5784 3.57653C11.6178 9.50292 10.3731 10.6561 4.1248 12.4335C2.04784 12.7713 0.446091 14.5745 0.411273 16.7745C0.385849 18.381 1.20226 19.8031 2.44877 20.611C2.93895 20.9317 3.49705 21.1574 4.09873 21.2611C10.0091 23.0625 11.1637 24.3008 13.1293 30.644Z" fill="white"/>
<path d="M21.8873 16.0449C21.4489 14.079 19.7261 12.5964 17.6443 12.5628C15.2026 12.5233 13.1915 14.492 13.1524 16.9601C13.1159 19.2715 14.822 21.2011 17.0444 21.4691C21.9826 22.971 23.4736 24.0868 24.9409 27.9867C25.1945 28.7974 25.3762 30.103 24.954 31.483C23.6269 34.7192 22.2373 35.8897 18.8118 37.0421C17.5709 37.3805 16.3699 37.2782 15.5605 37.07C11.5188 35.5597 10.4277 33.8823 8.73547 28.4216C8.29701 26.4556 6.57428 24.9731 4.49248 24.9394C2.05073 24.8999 0.0396387 26.8687 0.000577389 29.3367C-0.0360053 31.6481 1.6701 33.5778 3.89257 33.8458C9.80589 35.6442 10.7762 36.889 12.6819 43.0239C13.0517 45.0798 14.816 46.6536 16.9616 46.6883C17.6889 46.7001 18.3779 46.5337 18.988 46.229C20.2183 45.6457 21.1465 44.5042 21.4382 43.1124C23.3989 37.186 24.6436 36.0327 30.8919 34.2554C32.9688 33.9176 34.5706 32.1144 34.6054 29.9144C34.6308 28.3079 33.8144 26.8858 32.5679 26.0778C32.0777 25.7572 31.5196 25.5315 30.9179 25.4278C25.0076 23.6264 23.853 22.3881 21.8873 16.0449Z" fill="white"/>
<path d="M51.9859 28.1331C52.1436 29.2665 52.4535 30.1137 52.9155 30.6748C53.7606 31.6959 55.2085 32.2065 57.2593 32.2065C58.4876 32.2065 59.4848 32.0719 60.251 31.8025C61.7046 31.2864 62.4314 30.3269 62.4314 28.9242C62.4314 28.1051 62.0708 27.4711 61.3497 27.0222C60.6285 26.5846 59.4961 26.1974 57.9523 25.8608L55.3156 25.2716C52.7239 24.6881 50.9323 24.0541 49.9407 23.3696C48.2617 22.225 47.4223 20.4352 47.4223 18.0001C47.4223 15.7783 48.2336 13.9324 49.8562 12.4623C51.4788 10.9923 53.862 10.2573 57.0058 10.2573C59.6313 10.2573 61.868 10.9531 63.716 12.3445C65.5752 13.7248 66.5499 15.7334 66.6401 18.3704H61.637C61.5469 16.878 60.8933 15.8176 59.6764 15.1892C58.8651 14.774 57.8566 14.5664 56.6509 14.5664C55.31 14.5664 54.2395 14.8357 53.4394 15.3743C52.6394 15.9129 52.2394 16.6648 52.2394 17.6298C52.2394 18.5163 52.6338 19.1784 53.4225 19.616C53.9296 19.9078 55.0113 20.25 56.6678 20.6428L60.9609 21.6696C62.8427 22.1184 64.2625 22.7188 65.2203 23.4706C66.7077 24.6376 67.4514 26.3265 67.4514 28.5371C67.4514 30.8038 66.5781 32.689 64.8315 34.1927C63.0962 35.6852 60.6398 36.4314 57.4622 36.4314C54.2169 36.4314 51.6647 35.6964 49.8055 34.2264C47.9462 32.7451 47.0166 30.7141 47.0166 28.1331H51.9859Z" fill="white"/>
<path d="M79.1815 32.4085C80.59 32.4085 81.6718 31.9091 82.4267 30.9104C83.1817 29.9117 83.5592 28.4922 83.5592 26.6519C83.5592 24.8116 83.1817 23.3977 82.4267 22.4102C81.6718 21.4115 80.59 20.9121 79.1815 20.9121C77.773 20.9121 76.6856 21.4115 75.9194 22.4102C75.1644 23.3977 74.7869 24.8116 74.7869 26.6519C74.7869 28.4922 75.1644 29.9117 75.9194 30.9104C76.6856 31.9091 77.773 32.4085 79.1815 32.4085ZM88.613 26.6519C88.613 29.345 87.8355 31.6511 86.2804 33.5699C84.7254 35.4776 82.3648 36.4314 79.1984 36.4314C76.0321 36.4314 73.6714 35.4776 72.1164 33.5699C70.5614 31.6511 69.7839 29.345 69.7839 26.6519C69.7839 24.0036 70.5614 21.7088 72.1164 19.7675C73.6714 17.8262 76.0321 16.8555 79.1984 16.8555C82.3648 16.8555 84.7254 17.8262 86.2804 19.7675C87.8355 21.7088 88.613 24.0036 88.613 26.6519Z" fill="white"/>
<path d="M96.9965 35.7918H92.1793V10.9811H96.9965V35.7918Z" fill="white"/>
<path d="M109.977 32.4085C111.386 32.4085 112.468 31.9091 113.223 30.9104C113.978 29.9117 114.355 28.4922 114.355 26.6519C114.355 24.8116 113.978 23.3977 113.223 22.4102C112.468 21.4115 111.386 20.9121 109.977 20.9121C108.569 20.9121 107.481 21.4115 106.715 22.4102C105.96 23.3977 105.583 24.8116 105.583 26.6519C105.583 28.4922 105.96 29.9117 106.715 30.9104C107.481 31.9091 108.569 32.4085 109.977 32.4085ZM119.409 26.6519C119.409 29.345 118.631 31.6511 117.076 33.5699C115.521 35.4776 113.161 36.4314 109.994 36.4314C106.828 36.4314 104.467 35.4776 102.912 33.5699C101.357 31.6511 100.58 29.345 100.58 26.6519C100.58 24.0036 101.357 21.7088 102.912 19.7675C104.467 17.8262 106.828 16.8555 109.994 16.8555C113.161 16.8555 115.521 17.8262 117.076 19.7675C118.631 21.7088 119.409 24.0036 119.409 26.6519Z" fill="white"/>
<path d="M133.877 24.0261C133.787 23.3416 133.556 22.7244 133.184 22.1745C132.643 21.4339 131.804 21.0636 130.666 21.0636C129.043 21.0636 127.933 21.8659 127.336 23.4706C127.02 24.3234 126.863 25.4568 126.863 26.8707C126.863 28.2173 127.02 29.3002 127.336 30.1193C127.911 31.6454 128.992 32.4085 130.581 32.4085C131.708 32.4085 132.508 32.1055 132.981 31.4996C133.455 30.8936 133.742 30.1081 133.843 29.1431H138.762C138.649 30.6018 138.12 31.9821 137.173 33.2838C135.663 35.3822 133.426 36.4314 130.463 36.4314C127.499 36.4314 125.319 35.5561 123.922 33.8056C122.524 32.055 121.826 29.7827 121.826 26.9885C121.826 23.8353 122.598 21.3834 124.141 19.6329C125.685 17.8823 127.815 17.007 130.53 17.007C132.84 17.007 134.728 17.5232 136.193 18.5556C137.669 19.588 138.542 21.4115 138.813 24.0261H133.877Z" fill="white"/>
<path d="M142.092 11.0653H146.824V24.43L152.824 17.5288H158.791L152.351 24.5479L159.044 35.7918H153.23L148.819 27.948L146.824 30.0183V35.7918H142.092V11.0653Z" fill="white"/>
<path d="M168.679 20.9121C167.563 20.9121 166.696 21.26 166.076 21.9557C165.467 22.6514 165.084 23.594 164.926 24.7835H172.414C172.335 23.5155 171.947 22.5561 171.248 21.9052C170.561 21.2431 169.704 20.9121 168.679 20.9121ZM168.679 16.9565C170.211 16.9565 171.592 17.2427 172.82 17.815C174.048 18.3873 175.062 19.2906 175.862 20.525C176.583 21.6135 177.051 22.8759 177.265 24.3122C177.389 25.1538 177.44 26.3657 177.417 27.948H164.808C164.876 29.7883 165.456 31.0788 166.549 31.8194C167.214 32.2795 168.014 32.5095 168.949 32.5095C169.941 32.5095 170.746 32.229 171.366 31.6679C171.704 31.3649 172.003 30.9441 172.262 30.4055H177.181C177.057 31.494 176.488 32.5993 175.473 33.7214C173.896 35.5056 171.687 36.3977 168.848 36.3977C166.504 36.3977 164.436 35.6459 162.645 34.1422C160.853 32.6385 159.957 30.1923 159.957 26.8034C159.957 23.6277 160.763 21.1926 162.374 19.4982C163.997 17.8038 166.098 16.9565 168.679 16.9565Z" fill="white"/>
<path d="M190.685 17.007C190.776 17.007 190.849 17.0126 190.905 17.0239C190.973 17.0239 191.114 17.0295 191.328 17.0407V21.9557C191.023 21.922 190.753 21.8996 190.516 21.8884C190.28 21.8772 190.088 21.8715 189.942 21.8715C188.004 21.8715 186.702 22.4999 186.037 23.7568C185.665 24.4637 185.48 25.5522 185.48 27.0222V35.7918H180.629V17.4447H185.226V20.6428C185.97 19.4197 186.618 18.5837 187.17 18.1348C188.071 17.383 189.243 17.007 190.685 17.007Z" fill="white"/>
</svg>
