<svg width="46" height="38" viewBox="0 0 46 38" fill="none" xmlns="http://www.w3.org/2000/svg">
<path d="M30.5417 36.2499V32.4444C30.5417 30.4258 29.7398 28.4899 28.3124 27.0625C26.8851 25.6351 24.9491 24.8333 22.9306 24.8333H9.61111C7.59252 24.8333 5.6566 25.6351 4.22924 27.0625C2.80188 28.4899 2 30.4258 2 32.4444V36.2499" stroke="#01B834" stroke-width="3" stroke-linecap="round" stroke-linejoin="round"/>
<path d="M16.2713 17.2222C20.4748 17.2222 23.8824 13.8146 23.8824 9.61111C23.8824 5.40761 20.4748 2 16.2713 2C12.0678 2 8.66016 5.40761 8.66016 9.61111C8.66016 13.8146 12.0678 17.2222 16.2713 17.2222Z" stroke="#01B834" stroke-width="3" stroke-linecap="round" stroke-linejoin="round"/>
<path d="M32.4443 17.2223L36.2499 21.0279L43.861 13.4167" fill="white" fill-opacity="0.12"/>
<path d="M32.4443 17.2223L36.2499 21.0279L43.861 13.4167" stroke="#01B834" stroke-width="3" stroke-linecap="round" stroke-linejoin="round"/>
</svg>
